<svg xmlns="http://www.w3.org/2000/svg" viewBox="0 0 64 64" role="img" aria-labelledby="title desc">
  <title id="title">CodeQL-inspired mark</title>
  <desc id="desc">A shield containing a query graph</desc>
  <defs>
    <linearGradient id="surface" x1="8" y1="6" x2="56" y2="58" gradientUnits="userSpaceOnUse">
      <stop stop-color="#122A45"/>
      <stop offset="1" stop-color="#0B1728"/>
    </linearGradient>
    <linearGradient id="accent" x1="18" y1="14" x2="48" y2="48" gradientUnits="userSpaceOnUse">
      <stop stop-color="#9CCBFF"/>
      <stop offset="1" stop-color="#B89CFF"/>
    </linearGradient>
  </defs>
  <path d="M32 5.5 54 13v16.2c0 13.4-8.8 25.4-22 29.3-13.2-3.9-22-15.9-22-29.3V13L32 5.5Z" fill="url(#surface)" stroke="url(#accent)" stroke-width="2.5"/>
  <path d="m19 30 8-8 10 8 8-8M27 22v15m10-7v12" fill="none" stroke="#72D7FF" stroke-linecap="round" stroke-linejoin="round" stroke-width="2.5"/>
  <circle cx="19" cy="30" r="3.5" fill="#9CCBFF"/>
  <circle cx="27" cy="22" r="3.5" fill="#B89CFF"/>
  <circle cx="37" cy="30" r="3.5" fill="#72D7FF"/>
  <circle cx="45" cy="22" r="3.5" fill="#B89CFF"/>
  <circle cx="37" cy="42" r="3.5" fill="#72D7FF"/>
  <path d="M20 48h8m4 0h12" stroke="#E7F3FF" stroke-linecap="round" stroke-width="2.5"/>
</svg>
